# AST/ASF file generated using VICON BodyLanguage
# -----------------------------------------------
:version 1.10
:name VICON
:units
  mass 1.0
  length 0.45
  angle deg
:documentation
   .ast/.asf automatically generated from VICON data using
   VICON BodyBuilder and BodyLanguage model FoxedUp or BRILLIANT.MOD
:root
   order TX TY TZ RX RY RZ
   axis XYZ
   position 0 0 0  
   orientation 0 0 0 
:bonedata
  begin
     id 1 
     name lhipjoint
     direction 0.558404 -0.748506 0.357664 
     length 2.4234 
     axis 0 0 0  XYZ
  end
  begin
     id 2 
     name lfemur
     direction 0.34202 -0.939693 0  
     length 7.14567  
     axis 0 0 20  XYZ
    dof rx ry rz
    limits (-160.0 20.0)
           (-70.0 70.0)
           (-60.0 70.0)
  end
  begin
     id 3 
     name ltibia
     direction 0.34202 -0.939693 0   
     length 8.13956   
     axis 0 0 20   XYZ
    dof rx
    limits (-10.0 170.0)
  end
  begin
     id 4 
     name lfoot
     direction 0.0791314 -0.217412 0.972867   
     length 2.00134   
     axis -90 7.62852e-016 20   XYZ
    dof rx rz
    limits (-45.0 90.0)
           (-70.0 20.0)
  end
  begin
     id 5 
     name ltoes
     direction 1.53547e-011 -4.21922e-011 1   
     length 1.00735   
     axis -90 7.62852e-016 20   XYZ
    dof rx
    limits (-90.0 20.0)
  end
  begin
     id 6 
     name rhipjoint
     direction -0.496392 -0.78327 0.374276   
     length 2.31584  
     axis 0 0 0  XYZ 
  end
  begin
     id 7 
     name rfemur
     direction -0.34202 -0.939693 0   
     length 7.47417   
     axis 0 0 -20   XYZ
    dof rx ry rz
    limits (-160.0 20.0)
           (-70.0 70.0)
           (-70.0 60.0)
  end
  begin
     id 8 
     name rtibia
     direction -0.34202 -0.939693 0   
     length 7.69071   
     axis 0 0 -20   XYZ
    dof rx
    limits (-10.0 170.0)
 end
 begin
     id 9 
     name rfoot
     direction -0.103069 -0.28318 0.953512   
     length 2.16135  
     axis -90 -7.62852e-016 -20   XYZ
    dof rx rz
    limits (-45.0 90.0)
           (-20.0 70.0)
  end
  begin
     id 10 
     name rtoes
     direction -1.53581e-011 -4.21904e-011 1   
     length 1.07867   
     axis -90 -7.62852e-016 -20   XYZ
    dof rx
    limits (-90.0 20.0)
  end
  begin
     id 11 
     name lowerback
     direction -0.0258961 0.994776 -0.0987407   
     length 2.19412   
     axis 0 0 0   XYZ
    dof rx ry rz
    limits (-20.0 45.0)
           (-30.0 30.0)
           (-30.0 30.0)
  end
  begin
     id 12 
     name upperback
     direction 0.0402454 0.999185 0.00320666   
     length 2.18445   
     axis 0 0 0   XYZ
    dof rx ry rz
    limits (-20.0 45.0)
           (-30.0 30.0)
           (-30.0 30.0)
  end
  begin
     id 13 
     name thorax
     direction 0.0519376 0.997415 0.0496558   
     length 2.21487   
     axis 0 0 0   XYZ
    dof rx ry rz
    limits (-20.0 45.0)
           (-30.0 30.0)
           (-30.0 30.0)
  end
  begin
     id 14 
     name lowerneck
     direction -0.0921276 0.983211 0.157506   
     length 1.61201   
     axis 0 0 0   XYZ
    dof rx ry rz
    limits (-20.0 45.0)
           (-30.0 30.0)
           (-30.0 30.0)
  end
  begin
     id 15 
     name upperneck
     direction 0.0820814 0.98162 -0.172292   
     length 1.65275   
     axis 0 0 0   XYZ
    dof rx ry rz
    limits (-20.0 45.0)
           (-30.0 30.0)
           (-30.0 30.0)
  end
  begin
     id 16
     name head
     direction 0.0336554 0.996413 -0.0776455  
     length 1.66415  
     axis 0 0 0   XYZ
    dof rx ry rz
    limits (-20.0 45.0)
           (-30.0 30.0)
           (-30.0 30.0)
  end
  begin
     id 17 
     name lclavicle
     direction 0.94696 0.284418 -0.149576  
     length 3.41447  
     axis 0 0 0   XYZ
    dof ry rz
    limits (-20.0 10.0)
           (0.0 20.0)
  end
  begin
     id 18 
     name lhumerus
     direction 1 -0.000130264 -9.81312e-005   
     length 5.19964   
     axis 180 -30 -90   XYZ
    dof rx ry rz
    limits (-60.0 90.0)
           (-90.0 90.0)
           (-90.0 90.0)
  end
  begin
     id 19
     name lradius
     direction 1 -4.48961e-011 1.43854e-026   
     length 3.32189   
     axis 180 -30 -90   XYZ
    dof rx
    limits (-10.0 170.0)
  end
  begin
     id 20
     name lwrist
     direction 1 -4.48958e-011 3.1502e-026   
     length 1.66095   
     axis -1.97692e-014 90 90   XYZ
    dof ry
    limits (-180.0 0.0)
 end
  begin
     id 21 
     name lhand
     direction 1 -4.48927e-011 6.3004e-026   
     length 0.645616   
     axis -4.02019e-014 90 90   XYZ
    dof rx rz
    limits (-90.0 90.0)
           (-45.0 45.0)
  end
  begin
     id 22 
     name lfingers
     direction 1 -4.4904e-011 1.26008e-025   
     length 0.520512   
     axis -8.04039e-014 90 90   XYZ
    dof rx
    limits (0.0 90.0)
  end
  begin
     id 23
     name lthumb
     direction 0.707107 -6.34947e-011 0.707107   
     length 0.747354   
     axis -90 45 2.85299e-015   XYZ
    dof rx rz
    limits (-45.0 45.0)
           (-45.0 45.0)
  end
  begin
     id 24 
     name rclavicle
     direction -0.909391 0.383475 -0.161107   
     length 3.25176  
     axis 0 0 0   XYZ 
    dof ry rz
    limits (-10.0 20.0)
           (-20.0 0.0)
  end
  begin
     id 25 
     name rhumerus
     direction -1 -4.48965e-011 -1.81384e-027  
     length 5.6595   
     axis 180 30 90   XYZ
    dof rx ry rz
    limits (-90.0 60.0)
           (-90.0 90.0)
           (-90.0 90.0)
  end
  begin
     id 26 
     name rradius
     direction -1 -4.48996e-011 -8.09397e-027   
     length 3.37604   
     axis 180 30 90   XYZ
    dof rx
    limits (-10.0 170.0)
  end
  begin
     id 27 
     name rwrist
     direction -1 -4.48927e-011 -1.56669e-026   
     length 1.68802   
     axis 1.21142e-014 -90 -90   XYZ
    dof ry
    limits (-180.0 0.0)
  end
  begin
     id 28
     name rhand
     direction -1 -4.48912e-011 -3.13339e-026   
     length 0.824702   
     axis 1.99937e-014 -90 -90   XYZ
    dof rx rz
    limits (-90.0 90.0)
           (-45.0 45.0)
  end
  begin
     id 29
     name rfingers
     direction -1 -4.49011e-011 -6.26677e-026   
     length 0.664896   
     axis 3.99874e-014 -90 -90   XYZ
    dof rx
    limits (0.0 90.0)
  end
  begin
     id 30
     name rthumb
     direction -0.707107 -6.34931e-011 0.707107   
     length 0.954662   
     axis -90 -45 -2.85299e-015   XYZ
    dof rx rz
    limits (-45.0 45.0)
           (-45.0 45.0)
  end
:hierarchy
  begin
    root lhipjoint rhipjoint lowerback
    lhipjoint lfemur
    lfemur ltibia
    ltibia lfoot
    lfoot ltoes
    rhipjoint rfemur
    rfemur rtibia
    rtibia rfoot
    rfoot rtoes
    lowerback upperback
    upperback thorax
    thorax lowerneck lclavicle rclavicle
    lowerneck upperneck
    upperneck head
    lclavicle lhumerus
    lhumerus lradius
    lradius lwrist
    lwrist lhand lthumb
    lhand lfingers
    rclavicle rhumerus
    rhumerus rradius
    rradius rwrist
    rwrist rhand rthumb
    rhand rfingers
  end

#!OML:ASF F:\VICON\USERDATA\INSTALL\rory3\rory3.ASF
:FULLY-SPECIFIED
:DEGREES
401
root 10.1797 17.747 -14.9208 3.81057 -31.6468 -1.23394
lowerback 5.86566 0.790498 -4.40699
upperback 1.04863 0.844668 3.05823
thorax -2.31737 0.460046 5.59668
lowerneck -10.4862 -4.6635 -14.0557
upperneck 29.3713 -7.57313 12.3608
head 12.439 -3.62688 6.13373
rclavicle 3.68746e-014 4.41302e-014
rhumerus -29.9116 -20.7152 -71.1179
rradius 35.0799
rwrist -12.5221
rhand -10.5029 17.377
rfingers 7.12502
rthumb 15.4993 -12.0218
lclavicle 3.68746e-014 4.41302e-014
lhumerus -27.0002 20.4832 78.2869
lradius 25.8759
lwrist -15.723
lhand -1.37152 30.9174
lfingers 7.12502
lthumb 24.2761 59.4004
rfemur -20.5544 2.46402 11.347
rtibia 37.6882
rfoot -15.6488 -6.76273
rtoes 10.7487
lfemur -16.465 -0.707535 -20.575
ltibia 37.4437
lfoot -21.7058 8.06231
ltoes 5.65717
402
root 10.1987 17.7472 -14.9147 3.61524 -32.0392 -1.04839
lowerback 6.03529 0.643241 -4.60893
upperback 1.11818 0.6277 3.0083
thorax -2.31332 0.350876 5.67704
lowerneck -9.94559 -4.32564 -13.8384
upperneck 28.8813 -7.13624 12.3101
head 12.0365 -3.4254 6.11513
rclavicle -4.63168e-014 -2.74323e-014
rhumerus -30.1142 -20.6637 -71.1651
rradius 35.3009
rwrist -13.2978
rhand -10.6258 16.962
rfingers 7.12502
rthumb 15.3809 -12.4459
lclavicle -4.63168e-014 -2.74323e-014
lhumerus -26.6056 20.2017 78.217
lradius 25.479
lwrist -15.7059
lhand -1.78365 30.4162
lfingers 7.12502
lthumb 23.8809 58.9515
rfemur -20.548 2.67702 11.1071
rtibia 37.7199
rfoot -15.6542 -6.61112
rtoes 11.7324
lfemur -16.2824 -0.71796 -20.8586
ltibia 37.3911
lfoot -21.7482 8.39901
ltoes 5.20083
403
root 10.2159 17.7461 -14.9109 3.47373 -32.5301 -0.995499
lowerback 6.07994 0.551598 -4.67588
upperback 1.2643 0.497583 2.96599
thorax -2.16954 0.27781 5.68117
lowerneck -8.66208 -3.9998 -14.0051
upperneck 27.7094 -6.76828 12.6143
head 11.2635 -3.2726 6.26541
rclavicle 6.26172e-015 1.86858e-014
rhumerus -30.351 -20.3361 -71.2519
rradius 35.6318
rwrist -14.3263
rhand -11.0154 16.5464
rfingers 7.12502
rthumb 15.0057 -12.8899
lclavicle 6.26172e-015 1.86858e-014
lhumerus -26.0563 19.6966 78.2573
lradius 25.1572
lwrist -15.1163
lhand -1.94871 30.3555
lfingers 7.12502
lthumb 23.7226 58.9115
rfemur -20.5456 2.95361 10.9949
rtibia 37.7145
rfoot -15.6445 -6.4178
rtoes 12.4455
lfemur -16.0979 -0.560697 -21.0036
ltibia 37.3586
lfoot -21.7919 8.67215
ltoes 5.39019
404
root 10.2327 17.7437 -14.909 3.51313 -33.0092 -1.06913
lowerback 6.05633 0.451073 -4.63104
upperback 1.31062 0.366475 2.95585
thorax -2.09051 0.208198 5.65514
lowerneck -9.28512 -3.93874 -13.6913
upperneck 28.4456 -6.63567 12.2394
head 11.6301 -3.21126 6.11046
rclavicle 1.65488e-014 1.78906e-014
rhumerus -30.6795 -20.305 -71.0989
rradius 35.6375
rwrist -14.5972
rhand -11.1987 16.6728
rfingers 7.12502
rthumb 14.8291 -12.7766
lclavicle 1.65488e-014 1.78906e-014
lhumerus -25.825 19.752 78.1214
lradius 25.137
lwrist -14.8601
lhand -1.90975 30.646
lfingers 7.12502
lthumb 23.76 59.1971
rfemur -20.6818 3.25735 11.018
rtibia 37.6637
rfoot -15.4557 -6.36394
rtoes 11.6696
lfemur -16.1064 -0.245851 -20.9936
ltibia 37.3552
lfoot -21.8024 8.76329
ltoes 5.78106
405
root 10.2512 17.7446 -14.9006 3.60071 -33.451 -1.22712
lowerback 6.19947 0.323686 -4.5355
upperback 1.2243 0.198556 3.01297
thorax -2.23776 0.130128 5.67498
lowerneck -9.08674 -3.74482 -13.6252
upperneck 28.6038 -6.3763 12.0936
head 11.5994 -3.1148 6.08361
rclavicle -8.28932e-014 1.59028e-014
rhumerus -31.1622 -20.2723 -70.7853
rradius 35.5916
rwrist -14.5385
rhand -10.9629 16.9186
rfingers 7.12502
rthumb 15.0562 -12.5139
lclavicle -8.28932e-014 1.59028e-014
lhumerus -25.965 20.115 77.8762
lradius 25.1912
lwrist -15.09
lhand -1.68168 31.0689
lfingers 7.12502
lthumb 23.9787 59.5913
rfemur -20.7675 3.59426 11.0929
rtibia 37.5878
rfoot -15.2568 -6.26973
rtoes 11.1695
lfemur -16.1073 0.0131426 -20.9267
ltibia 37.3612
lfoot -21.803 8.89031
ltoes 5.67309
406
root 10.2695 17.7466 -14.893 3.67323 -33.9555 -1.3766
lowerback 6.34704 0.301081 -4.46247
upperback 1.17131 0.169518 3.08844
thorax -2.3715 0.120333 5.71629
lowerneck -8.84225 -3.60425 -13.6603
upperneck 28.6201 -6.20304 12.0838
head 11.5266 -3.05186 6.11043
rclavicle -8.8161e-014 1.39149e-014
rhumerus -31.6538 -20.3061 -70.3949
rradius 35.6596
rwrist -14.552
rhand -11.078 16.7127
rfingers 7.12502
rthumb 14.9453 -12.728
lclavicle -8.8161e-014 1.39149e-014
lhumerus -25.8969 20.2879 77.8246
lradius 25.1199
lwrist -15.466
lhand -1.56568 31.214
lfingers 7.12502
lthumb 24.0899 59.7218
rfemur -20.857 3.89529 11.1616
rtibia 37.4961
rfoot -15.1261 -6.12606
rtoes 11.1718
lfemur -16.0676 0.0567599 -20.9061
ltibia 37.3661
lfoot -21.8683 9.31386
ltoes 5.67881
407
root 10.2857 17.7475 -14.885 3.6015 -34.5349 -1.16561
lowerback 6.21831 0.313531 -4.62838
upperback 1.27249 0.17732 2.99934
thorax -2.19564 0.117356 5.71547
lowerneck -9.03308 -3.54475 -13.4914
upperneck 28.7875 -6.13163 12.0284
head 11.6112 -3.00564 6.07478
rclavicle 4.23411e-014 -7.15625e-015
rhumerus -31.87 -20.8114 -70.1361
rradius 35.5741
rwrist -14.3621
rhand -11.5182 16.3978
rfingers 7.12502
rthumb 14.5213 -13.074
lclavicle 4.23411e-014 -7.15625e-015
lhumerus -25.4386 20.3836 77.7827
lradius 24.9724
lwrist -15.8328
lhand -1.3874 31.2753
lfingers 7.12502
lthumb 24.2608 59.7604
rfemur -21.029 4.07649 10.8857
rtibia 37.411
rfoot -15.0045 -5.88813
rtoes 10.9088
lfemur -16.0579 0.0667603 -21.2322
ltibia 37.3548
lfoot -22.013 9.79704
ltoes 6.44655
408
root 10.298 17.7482 -14.8776 3.58198 -34.9985 -1.06065
lowerback 6.02648 0.244686 -4.72827
upperback 1.40063 0.0845698 2.93742
thorax -1.94309 0.0603379 5.71297
lowerneck -9.46663 -3.52454 -13.3934
upperneck 29.2702 -6.10784 11.98
head 11.8829 -2.98661 6.06408
rclavicle 2.28602e-015 1.55052e-014
rhumerus -32.123 -21.0717 -69.9434
rradius 35.5953
rwrist -14.3969
rhand -11.7908 16.19
rfingers 7.12502
rthumb 14.2586 -13.3005
lclavicle 2.28602e-015 1.55052e-014
lhumerus -25.0399 20.382 77.7259
lradius 24.8996
lwrist -15.9534
lhand -1.21284 31.2523
lfingers 7.12502
lthumb 24.4282 59.7149
rfemur -21.1468 4.29044 10.7125
rtibia 37.3477
rfoot -14.896 -5.70629
rtoes 10.3926
lfemur -16.0432 0.317731 -21.4154
ltibia 37.3292
lfoot -22.0935 9.95369
ltoes 6.82712
409
root 10.3106 17.7482 -14.8755 3.71127 -35.3535 -1.18933
lowerback 5.95804 0.143155 -4.68961
upperback 1.42915 -0.0451507 2.99934
thorax -1.85788 -0.0082809 5.76533
lowerneck -9.84997 -3.555 -13.7316
upperneck 29.9845 -6.15218 12.1162
head 12.2762 -3.03477 6.21197
rclavicle 2.45002e-014 3.57812e-015
rhumerus -32.5419 -20.9294 -69.6572
rradius 35.7766
rwrist -14.8767
rhand -11.6807 16.1875
rfingers 7.12502
rthumb 14.3647 -13.2955
lclavicle 2.45002e-014 3.57812e-015
lhumerus -24.7879 20.4101 77.7444
lradius 24.8303
lwrist -15.8388
lhand -1.65597 30.9295
lfingers 7.12502
lthumb 24.0033 59.4487
rfemur -21.2876 4.62927 10.7696
rtibia 37.3113
rfoot -14.8308 -5.72636
rtoes 9.77345
lfemur -16.0885 0.639388 -21.3538
ltibia 37.3027
lfoot -22.0948 9.98038
ltoes 6.79074
410
root 10.3259 17.7476 -14.8722 3.6812 -35.7726 -1.0378
lowerback 5.87892 0.0362969 -4.83272
upperback 1.53332 -0.19497 2.93008
thorax -1.68507 -0.0909956 5.78389
lowerneck -9.90089 -3.57003 -14.1674
upperneck 30.0963 -6.20349 12.4863
head 12.3701 -3.07088 6.44202
rclavicle -4.04527e-014 -6.36111e-015
rhumerus -32.6194 -21.2547 -69.55
rradius 35.6864
rwrist -15.0514
rhand -11.2549 16.3319
rfingers 7.12502
rthumb 14.7749 -13.1215
lclavicle -4.04527e-014 -6.36111e-015
lhumerus -24.3569 20.7233 77.6327
lradius 24.6789
lwrist -15.7578
lhand -2.33531 30.6589
lfingers 7.12502
lthumb 23.3518 59.2624
rfemur -21.4786 4.88331 10.571
rtibia 37.2765
rfoot -14.7707 -5.69679
rtoes 9.4043
lfemur -16.1269 0.740993 -21.5861
ltibia 37.287
lfoot -22.126 10.276
ltoes 7.18055
411
root 10.3418 17.7469 -14.8669 3.68163 -36.3244 -0.960499
lowerback 5.76125 -0.0639831 -4.95229
upperback 1.71028 -0.332902 2.85023
thorax -1.41682 -0.173204 5.77533
lowerneck -10.1255 -3.38086 -14.0634
upperneck 30.0085 -5.97325 12.6838
head 12.3414 -2.92708 6.53077
rclavicle -4.29375e-014 -2.38542e-014
rhumerus -32.4881 -21.7504 -69.5587
rradius 35.4137
rwrist -14.846
rhand -11.3919 16.2753
rfingers 7.12502
rthumb 14.6429 -13.1877
lclavicle -4.29375e-014 -2.38542e-014
lhumerus -23.9099 21.1133 77.4142
lradius 24.633
lwrist -15.8732
lhand -2.50114 30.6303
lfingers 7.12502
lthumb 23.1927 59.2539
rfemur -21.6898 5.13651 10.4228
rtibia 37.2351
rfoot -14.6815 -5.46534
rtoes 9.72814
lfemur -16.1529 0.955884 -21.7563
ltibia 37.2843
lfoot -22.1765 10.5744
ltoes 7.48997
412
root 10.3584 17.7456 -14.859 3.74406 -36.8456 -1.05908
lowerback 5.6494 -0.13697 -4.9035
upperback 1.88199 -0.423849 2.85053
thorax -1.16457 -0.231757 5.75107
lowerneck -10.1597 -3.22986 -14.0386
upperneck 29.8063 -5.75426 12.7539
head 12.2275 -2.81401 6.57253
rclavicle -3.61291e-014 3.97569e-016
rhumerus -32.5261 -21.7286 -69.4879
rradius 35.3036
rwrist -14.8498
rhand -11.841 16.1324
rfingers 7.12502
rthumb 14.2102 -13.3615
lclavicle -3.61291e-014 3.97569e-016
lhumerus -23.4538 21.2521 77.3346
lradius 24.6848
lwrist -15.9026
lhand -2.16237 31.0489
lfingers 7.12502
lthumb 23.5176 59.6313
rfemur -21.825 5.44785 10.4158
rtibia 37.1967
rfoot -14.542 -5.23908
rtoes 9.62694
lfemur -16.1376 1.33555 -21.7508
ltibia 37.279
lfoot -22.2525 10.6337
ltoes 7.83014
413
root 10.3742 17.7432 -14.8519 3.71931 -37.1971 -0.998333
lowerback 5.72889 -0.19422 -4.97007
upperback 1.88955 -0.507492 2.84883
thorax -1.18896 -0.273327 5.79377
lowerneck -9.95631 -3.11034 -14.1363
upperneck 29.6245 -5.58993 12.8205
head 12.0862 -2.74795 6.62805
rclavicle -5.62561e-014 1.19271e-014
rhumerus -32.8952 -21.4869 -69.2417
rradius 35.2855
rwrist -15.0375
rhand -11.9234 16.0911
rfingers 7.12502
rthumb 14.1308 -13.4083
lclavicle -5.62561e-014 1.19271e-014
lhumerus -23.1971 21.2723 77.3183
lradius 24.7139
lwrist -15.8419
lhand -1.70546 31.6191
lfingers 7.12502
lthumb 23.9559 60.1446
rfemur -21.9175 5.61664 10.284
rtibia 37.1579
rfoot -14.4227 -5.08861
rtoes 8.99975
lfemur -16.1325 1.61483 -21.8817
ltibia 37.2745
lfoot -22.3083 10.6816
ltoes 8.13834
